<svg width="46" height="50" viewBox="0 0 46 50" fill="none" xmlns="http://www.w3.org/2000/svg" xmlns:xlink="http://www.w3.org/1999/xlink">
<g opacity="0.4" style="isolation:isolate">
<path d="M14.368,6.704L29.724,6.704L29.724,3.128L14.368,3.128L14.368,6.704ZM10.874,3.275L10.874,3.293C9.675,3.402 8.489,3.64 7.336,3.998L7.336,3.985C7.301,3.999 7.269,4.01 7.238,4.021C7.197,4.035 7.159,4.048 7.121,4.067C7.029,4.09 6.939,4.123 6.853,4.165C6.6,4.248 6.347,4.345 6.109,4.446C6.046,4.47 5.983,4.498 5.919,4.527C5.856,4.555 5.793,4.583 5.73,4.608C5.643,4.649 5.552,4.694 5.461,4.739C5.371,4.784 5.28,4.829 5.193,4.871L4.764,5.117C4.685,5.158 4.612,5.205 4.537,5.254C4.492,5.283 4.447,5.312 4.4,5.34C3.754,5.756 3.156,6.243 2.616,6.797L2.584,6.831C2.513,6.913 2.442,6.994 2.372,7.073C2.254,7.207 2.139,7.337 2.03,7.471L1.998,7.503C0.244,9.923 -0.635,12.907 -0.483,15.931L-0.483,16.89L2.98,16.89L2.98,15.922C2.98,11.708 4.323,9.085 7.31,7.741C8.451,7.258 9.656,6.96 10.883,6.851L10.915,6.851L10.915,3.291L10.874,3.275ZM41.995,7.458L42.01,7.489C43.762,9.912 44.637,12.898 44.483,15.922L44.483,16.89L41.021,16.89L41.021,15.898C41.094,14.113 40.736,12.338 39.977,10.733C39.248,9.361 38.081,8.295 36.672,7.716C35.551,7.233 34.363,6.933 33.151,6.826L33.151,3.284C34.35,3.395 35.536,3.631 36.692,3.989L36.692,3.972C36.757,4.001 36.806,4.019 36.891,4.049L36.906,4.054C36.946,4.068 36.982,4.082 37.019,4.096C37.069,4.115 37.119,4.134 37.174,4.152C37.411,4.23 37.633,4.321 37.861,4.416L37.901,4.432C38.006,4.469 38.106,4.515 38.195,4.556C38.224,4.57 38.252,4.583 38.279,4.595C38.467,4.677 38.66,4.775 38.815,4.857C38.918,4.911 39.018,4.968 39.112,5.021C39.163,5.05 39.212,5.078 39.259,5.104C39.335,5.147 39.402,5.192 39.466,5.236C39.513,5.267 39.559,5.298 39.606,5.327C40.254,5.745 40.858,6.234 41.405,6.784L41.425,6.817C41.626,7.02 41.817,7.233 41.995,7.458Z" clip-rule="evenodd" fill-rule="evenodd" fill="#5669FF"/>
</g>
<path d="M33.25,0.792L33.25,8.671C33.25,9.664 32.445,10.468 31.45,10.468C30.456,10.468 29.65,9.664 29.65,8.671L29.65,0.81C29.641,-0.182 30.442,-0.993 31.437,-1C32.431,-1.007 33.243,-0.209 33.25,0.783L33.25,0.792Z" fill="#5669FF"/>
<path d="M14.35,0.821L14.35,8.68C14.35,9.677 13.544,10.486 12.549,10.486C11.554,10.486 10.75,9.677 10.75,8.68L10.75,0.821C10.75,-0.176 11.554,-0.982 12.549,-0.982C13.544,-0.982 14.35,-0.176 14.35,0.821Z" fill="#5669FF"/>
</svg>
