<svg width="52" height="48" viewBox="0 0 52 48" fill="none" xmlns="http://www.w3.org/2000/svg" xmlns:xlink="http://www.w3.org/1999/xlink">
<path d="M14.608,12L14.608,13.5C15.098,13.5 15.557,13.261 15.838,12.859L14.608,12ZM17.556,7.781L16.326,6.922L16.326,6.922L17.556,7.781ZM32.62,7.781L33.85,6.922L32.62,7.781ZM35.568,12L34.338,12.859C34.619,13.261 35.078,13.5 35.568,13.5L35.568,12ZM29.876,27C29.876,29.42 27.799,31.5 25.088,31.5L25.088,34.5C29.322,34.5 32.876,31.208 32.876,27L29.876,27ZM25.088,31.5C22.377,31.5 20.3,29.42 20.3,27L17.3,27C17.3,31.208 20.854,34.5 25.088,34.5L25.088,31.5ZM20.3,27C20.3,24.58 22.377,22.5 25.088,22.5L25.088,19.5C20.854,19.5 17.3,22.792 17.3,27L20.3,27ZM25.088,22.5C27.799,22.5 29.876,24.58 29.876,27L32.876,27C32.876,22.792 29.322,19.5 25.088,19.5L25.088,22.5ZM15.838,12.859L18.785,8.64L16.326,6.922L13.378,11.141L15.838,12.859ZM21.043,7.5L29.133,7.5L29.133,4.5L21.043,4.5L21.043,7.5ZM31.391,8.64L34.338,12.859L36.798,11.141L33.85,6.922L31.391,8.64ZM29.133,7.5C30.063,7.5 30.905,7.944 31.391,8.64L33.85,6.922C32.781,5.392 31.005,4.5 29.133,4.5L29.133,7.5ZM18.785,8.64C19.271,7.944 20.113,7.5 21.043,7.5L21.043,4.5C19.171,4.5 17.395,5.392 16.326,6.922L18.785,8.64ZM44.548,20L44.548,34L47.548,34L47.548,20L44.548,20ZM37.664,40.5L12.512,40.5L12.512,43.5L37.664,43.5L37.664,40.5ZM5.628,34L5.628,20L2.628,20L2.628,34L5.628,34ZM12.512,40.5C8.643,40.5 5.628,37.524 5.628,34L2.628,34C2.628,39.312 7.12,43.5 12.512,43.5L12.512,40.5ZM44.548,34C44.548,37.524 41.533,40.5 37.664,40.5L37.664,43.5C43.056,43.5 47.548,39.312 47.548,34L44.548,34ZM37.664,13.5C41.533,13.5 44.548,16.476 44.548,20L47.548,20C47.548,14.688 43.056,10.5 37.664,10.5L37.664,13.5ZM12.512,10.5C7.12,10.5 2.628,14.688 2.628,20L5.628,20C5.628,16.476 8.643,13.5 12.512,13.5L12.512,10.5ZM12.512,13.5L14.608,13.5L14.608,10.5L12.512,10.5L12.512,13.5ZM37.664,10.5L35.568,10.5L35.568,13.5L37.664,13.5L37.664,10.5Z" fill="#000E08"/>
<path d="M27.184,12C27.184,13.105 26.246,14 25.088,14C23.93,14 22.992,13.105 22.992,12C22.992,10.895 23.93,10 25.088,10C26.246,10 27.184,10.895 27.184,12Z" fill="#000E08"/>
</svg>
