<svg width="220" height="150" viewBox="0 0 220 150" fill="none" xmlns="http://www.w3.org/2000/svg" xmlns:xlink="http://www.w3.org/1999/xlink">
<path d="M8.365,67.354L0.237,52L0.237,107.582C0.237,114.896 -0.865,133.216 1.683,138.299C3.362,141.65 6.142,145.426 8.912,147.075C12.191,149.026 16.179,150 17.587,150L220,150L217.336,148.537L202.324,131.715L180.006,131.715C169.862,129.034 148.924,123.67 146.327,123.67C143.081,123.67 120.763,109.042 118.329,107.58C116.381,106.41 104.262,96.853 98.446,92.221L85.461,81.25L60.304,81.25L27.03,72.473L8.365,67.354Z" transform="rotate(360 110 101)" fill="#0D276A"/>
<path d="M187,14L187,77L128,107L99,56L121,0L187,14Z" fill="#5A6AA6"/>
</svg>
