<svg width="56" height="56" viewBox="0 0 56 56" fill="none" xmlns="http://www.w3.org/2000/svg" xmlns:xlink="http://www.w3.org/1999/xlink">
<path d="M27,50C39.703,50 50,39.703 50,27C50,14.297 39.703,4 27,4C14.297,4 4,14.297 4,27C4,39.703 14.297,50 27,50Z" clip-rule="evenodd" fill-rule="evenodd" fill="url(#pattern_0_96_894)" stroke="#000000" stroke-opacity="0.1" stroke-width="0.5" stroke-miterlimit="3.999327"/>
<path d="M27,55C42.464,55 55,42.464 55,27L53,27C53,41.359 41.359,53 27,53L27,55ZM55,27C55,11.536 42.464,-1 27,-1L27,1C41.359,1 53,12.641 53,27L55,27ZM27,-1C11.536,-1 -1,11.536 -1,27L1,27C1,12.641 12.641,1 27,1L27,-1ZM-1,27C-1,42.464 11.536,55 27,55L27,53C12.641,53 1,41.359 1,27L-1,27Z" fill="#262626"/>
</svg>
