<svg width="328" height="146" viewBox="0 0 328 146" fill="none" xmlns="http://www.w3.org/2000/svg" xmlns:xlink="http://www.w3.org/1999/xlink">
<path d="M60.849,68.991C48.428,75.442 7.177,105.85 1.501,116.381C-4.692,135.562 9.758,145.764 18.015,146L63.43,146L156.839,146L303.704,146C305.3,146 311.466,144.59 315.852,142C319.814,139.661 321.992,136.249 323.95,134C328.01,129.34 328.002,122.243 328,121.056L328,121L328,60C326.988,59 328.28,58.921 320.436,56.157C312.59,53.392 300.652,87.914 295.664,105.521C291.88,113.749 282.452,130.993 275.02,134.153C267.59,137.312 264.012,129.874 263.152,125.761C254.378,104.205 231.052,60.797 207.932,59.612C179.031,58.131 168.709,112.432 160.968,125.761C154.775,136.423 136.712,135.798 128.455,134.153C119.682,130.532 100.174,117.369 92.33,93.674C82.524,64.055 78.912,59.612 60.849,68.991Z" fill="#0F4D67"/>
<path d="M168,35L131,100L190,88L226,102L305,50L244,0L206,46L168,35Z" fill="#80BCC5"/>
</svg>
