<svg width="324" height="150" viewBox="0 0 324 150" fill="none" xmlns="http://www.w3.org/2000/svg" xmlns:xlink="http://www.w3.org/1999/xlink">
<path d="M60.107,72.991C47.837,79.442 7.09,109.85 1.482,120.381C-4.635,139.562 9.639,149.764 17.795,150L62.656,150L154.927,150L300,150C301.576,150 307.668,148.59 312,146C315.914,143.661 318.064,140.249 320,138C324.01,133.34 324.002,126.243 324,125.056L324,125L324,64C323,63 324.276,62.921 316.528,60.157C308.778,57.392 296.986,91.914 292.058,109.521C288.32,117.749 279.008,134.993 271.666,138.153C264.326,141.312 260.792,133.874 259.942,129.761C251.276,108.205 228.234,64.797 205.396,63.612C176.847,62.131 166.652,116.432 159.005,129.761C152.888,140.423 135.045,139.798 126.889,138.153C118.222,134.532 98.953,121.369 91.204,97.674C81.518,68.055 77.95,63.612 60.107,72.991Z" fill="#149885"/>
<path d="M211,8L301,0L284,83L202,114L211,8Z" transform="rotate(-39.935 251.5 57)" fill="#213F3A"/>
</svg>
