<svg width="36" height="22" viewBox="0 0 36 22" fill="none" xmlns="http://www.w3.org/2000/svg" xmlns:xlink="http://www.w3.org/1999/xlink">
<path d="M1.621,12.667L3.717,12.667C4.875,12.667 5.813,13.562 5.813,14.667L5.813,18.667C5.813,19.771 4.875,20.667 3.717,20.667L1.621,20.667C0.464,20.667 -0.475,19.771 -0.475,18.667L-0.475,14.667C-0.475,13.562 0.464,12.667 1.621,12.667L1.621,12.667ZM11.403,8.667L13.499,8.667C14.656,8.667 15.595,9.562 15.595,10.667L15.595,18.667C15.595,19.771 14.656,20.667 13.499,20.667L11.403,20.667C10.245,20.667 9.307,19.771 9.307,18.667L9.307,10.667C9.307,9.562 10.245,8.667 11.403,8.667ZM21.184,4L23.28,4C24.438,4 25.376,4.895 25.376,6L25.376,18.667C25.376,19.771 24.438,20.667 23.28,20.667L21.184,20.667C20.026,20.667 19.088,19.771 19.088,18.667L19.088,6C19.088,4.895 20.026,4 21.184,4ZM30.965,-0.667L33.061,-0.667C34.219,-0.667 35.157,0.229 35.157,1.333L35.157,18.667C35.157,19.771 34.219,20.667 33.061,20.667L30.965,20.667C29.808,20.667 28.869,19.771 28.869,18.667L28.869,1.333C28.869,0.229 29.808,-0.667 30.965,-0.667L30.965,-0.667Z" clip-rule="evenodd" fill-rule="evenodd" fill="#060606"/>
<path d="M1.621,12.667L3.717,12.667C4.875,12.667 5.813,13.562 5.813,14.667L5.813,18.667C5.813,19.771 4.875,20.667 3.717,20.667L1.621,20.667C0.464,20.667 -0.475,19.771 -0.475,18.667L-0.475,14.667C-0.475,13.562 0.464,12.667 1.621,12.667L1.621,12.667ZM11.403,8.667L13.499,8.667C14.656,8.667 15.595,9.562 15.595,10.667L15.595,18.667C15.595,19.771 14.656,20.667 13.499,20.667L11.403,20.667C10.245,20.667 9.307,19.771 9.307,18.667L9.307,10.667C9.307,9.562 10.245,8.667 11.403,8.667ZM21.184,4L23.28,4C24.438,4 25.376,4.895 25.376,6L25.376,18.667C25.376,19.771 24.438,20.667 23.28,20.667L21.184,20.667C20.026,20.667 19.088,19.771 19.088,18.667L19.088,6C19.088,4.895 20.026,4 21.184,4ZM30.965,-0.667L33.061,-0.667C34.219,-0.667 35.157,0.229 35.157,1.333L35.157,18.667C35.157,19.771 34.219,20.667 33.061,20.667L30.965,20.667C29.808,20.667 28.869,19.771 28.869,18.667L28.869,1.333C28.869,0.229 29.808,-0.667 30.965,-0.667L30.965,-0.667Z" clip-rule="evenodd" fill-rule="evenodd" fill="#060606"/>
</svg>
