<svg width="306" height="198" viewBox="0 0 306 198" fill="none" xmlns="http://www.w3.org/2000/svg" xmlns:xlink="http://www.w3.org/1999/xlink">
<path d="M11.571,84.994L0.328,64L0.328,140C0.328,150 -1.196,175.05 2.328,182C4.651,186.583 8.496,191.746 12.327,194C16.864,196.669 22.38,198 24.328,198L304.328,198L300.644,196L279.876,172.999L249.004,172.999C234.972,169.332 206.008,161.998 202.416,161.998C197.925,161.998 167.053,141.997 163.685,139.997C160.991,138.397 144.227,125.329 136.181,118.996L118.219,103.995L83.419,103.995L37.391,91.994L11.571,84.994Z" transform="rotate(360 152.164 131)" fill="#F64E45" fill-opacity="0.69"/>
<path d="M185,185L227,185L255,101L284,73L247,0L158,40L192,77L185,185Z" fill="#F1716C"/>
</svg>
