<svg width="328" height="180" viewBox="0 0 328 180" fill="none" xmlns="http://www.w3.org/2000/svg" xmlns:xlink="http://www.w3.org/1999/xlink">
<path d="M256,143L189,153L189,99L216,80L212,56L209,12L288,0L299,53L256,72L268,92L307,92L288,116L256,143Z" fill="#D18E28"/>
<path d="M46.207,96.164L0.457,106.027C0.457,124.521 -0.571,147.945 0.457,159.041C0.682,161.473 3.164,168.294 8,173C11.882,176.778 17.506,178.628 23,180L305,180C308,180 320.614,176.236 325,166C326.304,162.959 327.486,159.832 328,155L328,92L313.508,96.164L271.356,114.041L228.69,151.027L169.062,121.438L137.192,90L79.619,106.644L46.207,96.164Z" fill="#000000" fill-opacity="0.24"/>
</svg>
