<svg width="328" height="160" viewBox="0 0 328 160" fill="none" xmlns="http://www.w3.org/2000/svg" xmlns:xlink="http://www.w3.org/1999/xlink">
<path d="M46.207,76.164L0.457,86.027C0.457,104.521 -0.571,127.945 0.457,139.041C0.863,143.425 6.663,155.918 19,159L54,160L164,160L308.882,160C311.452,159.589 319.194,158.184 324.302,148.288C330.984,135.342 326.358,97.74 327.386,74.932L313.508,76.164L271.356,94.041L228.69,131.027L169.062,101.438L137.192,70L79.619,86.644L46.207,76.164Z" transform="rotate(360 164 115)" fill="#FF4E4E" fill-opacity="0.35"/>
<path d="M181,1L120,115L287,121L181,1Z" fill="#FF74C7"/>
</svg>
