<svg width="304" height="120" viewBox="0 0 304 120" fill="none" xmlns="http://www.w3.org/2000/svg" xmlns:xlink="http://www.w3.org/1999/xlink">
<path d="M11.559,37.354L0.327,22L0.327,77.582C0.327,84.896 -1.195,103.216 2.325,108.299C4.646,111.65 8.487,115.426 12.314,117.075C16.845,119.026 22.356,120 24.301,120L304,120L300.32,118.537L279.574,101.715L248.736,101.715C234.718,99.034 205.786,93.67 202.198,93.67C197.712,93.67 166.873,79.042 163.509,77.58C160.818,76.41 144.071,66.853 136.035,62.221L118.092,51.25L83.329,51.25L37.351,42.473L11.559,37.354Z" transform="rotate(360 152 71)" fill="#430000"/>
<path d="M144.855,12.835C142.438,12.835 211.318,88.519 231.862,102.28C252.807,67.419 293.974,-2.026 291.074,-0.926C287.449,0.45 147.272,12.835 144.855,12.835Z" transform="rotate(-29.743 218.006 50.671)" fill="#9E4B4B"/>
</svg>
