<svg width="324" height="178" viewBox="0 0 324 178" fill="none" xmlns="http://www.w3.org/2000/svg" xmlns:xlink="http://www.w3.org/1999/xlink">
<path d="M60.107,100.991C47.837,107.442 7.09,137.85 1.482,148.381C-4.635,167.562 9.639,177.764 17.795,178L62.656,178L154.927,178L300,178C301.576,178 307.668,176.59 312,174C315.914,171.661 318.064,168.249 320,166C324.01,161.34 324.002,154.243 324,153.056L324,153L324,92C323,91 324.276,90.921 316.528,88.157C308.778,85.392 296.986,119.914 292.058,137.521C288.32,145.749 279.008,162.993 271.666,166.153C264.326,169.312 260.792,161.874 259.942,157.761C251.276,136.205 228.234,92.797 205.396,91.612C176.847,90.131 166.652,144.432 159.005,157.761C152.888,168.423 135.045,167.798 126.889,166.153C118.222,162.532 98.953,149.369 91.204,125.674C81.518,96.055 77.95,91.612 60.107,100.991Z" fill="#D93F77"/>
<path d="M235.532,-0.224C214.532,44.443 172.132,133.976 170.532,134.776L291.532,134.776L235.532,-0.224Z" transform="rotate(-63.799 231.032 67.276)" fill="#FF96B2"/>
</svg>
