<svg width="328" height="178" viewBox="0 0 328 178" fill="none" xmlns="http://www.w3.org/2000/svg" xmlns:xlink="http://www.w3.org/1999/xlink">
<path d="M46.207,94.164L0.457,104.027C0.457,122.521 -0.571,145.945 0.457,157.041C0.682,159.473 3.164,166.294 8,171C11.882,174.778 17.506,176.628 23,178L305,178C308,178 320.614,174.236 325,164C326.304,160.959 327.486,157.832 328,153L328,90L313.508,94.164L271.356,112.041L228.69,149.027L169.062,119.438L137.192,88L79.619,104.644L46.207,94.164Z" fill="#15BA35" fill-opacity="0.24"/>
<path d="M222,14L189,77L227,153L295,123L295,42L282,0L222,14Z" fill="#395736"/>
</svg>
