<svg width="32" height="32" viewBox="0 0 32 32" fill="none" xmlns="http://www.w3.org/2000/svg" xmlns:xlink="http://www.w3.org/1999/xlink">
<path d="M13.761,27.523C11.04,27.523 8.379,26.716 6.116,25.203C3.853,23.691 2.089,21.542 1.048,19.027C0.006,16.513 -0.267,13.746 0.264,11.077C0.795,8.407 2.106,5.955 4.031,4.031C5.955,2.106 8.407,0.795 11.077,0.264C13.746,-0.267 16.513,0.006 19.027,1.048C21.542,2.089 23.691,3.853 25.203,6.116C26.716,8.379 27.523,11.04 27.523,13.761C27.523,15.568 27.167,17.358 26.475,19.027C25.783,20.697 24.77,22.214 23.492,23.492C22.214,24.77 20.697,25.783 19.027,26.475C17.358,27.167 15.568,27.523 13.761,27.523ZM13.761,2.76C11.593,2.76 9.473,3.403 7.669,4.608C5.866,5.812 4.461,7.525 3.631,9.529C2.801,11.532 2.584,13.737 3.007,15.864C3.43,17.991 4.474,19.945 6.008,21.478C7.541,23.012 9.495,24.056 11.622,24.479C13.749,24.902 15.954,24.685 17.957,23.855C19.961,23.025 21.674,21.62 22.878,19.817C24.083,18.013 24.726,15.893 24.726,13.725C24.726,10.817 23.571,8.028 21.515,5.971C19.458,3.915 16.669,2.76 13.761,2.76Z" fill="#8C8C8C"/>
<path d="M30.629,32C30.449,32.001 30.271,31.966 30.104,31.896C29.938,31.828 29.787,31.726 29.661,31.598L22.113,24.05C21.871,23.79 21.739,23.447 21.745,23.091C21.752,22.736 21.896,22.398 22.147,22.146C22.398,21.895 22.737,21.752 23.092,21.745C23.447,21.739 23.79,21.871 24.05,22.113L31.598,29.661C31.854,29.918 31.999,30.266 31.999,30.629C31.999,30.992 31.854,31.341 31.598,31.598C31.471,31.726 31.32,31.828 31.154,31.896C30.988,31.966 30.809,32.001 30.629,32Z" fill="#8C8C8C"/>
</svg>
