<svg width="42" height="44" viewBox="0 0 42 44" fill="none" xmlns="http://www.w3.org/2000/svg" xmlns:xlink="http://www.w3.org/1999/xlink">
<line x1="3.333" y1="19" x2="40.667" y2="19" stroke="#000000" stroke-width="3" stroke-miterlimit="3.999327" stroke-linecap="round" stroke-linejoin="round"/>
<path d="M19.879,42.788C21.05,43.96 22.95,43.96 24.121,42.788C25.293,41.616 25.293,39.717 24.121,38.545L19.879,42.788ZM3.333,22L1.212,19.879C0.649,20.441 0.333,21.204 0.333,22C0.333,22.796 0.649,23.559 1.212,24.121L3.333,22ZM24.121,5.455C25.293,4.283 25.293,2.384 24.121,1.212C22.95,0.04 21.05,0.04 19.879,1.212L24.121,5.455ZM24.121,38.545L5.455,19.879L1.212,24.121L19.879,42.788L24.121,38.545ZM5.455,24.121L24.121,5.455L19.879,1.212L1.212,19.879L5.455,24.121Z" fill="#000000"/>
</svg>
