<svg width="36" height="26" viewBox="0 0 36 26" fill="none" xmlns="http://www.w3.org/2000/svg" xmlns:xlink="http://www.w3.org/1999/xlink">
<path d="M19.554,6.354C19.554,5.241 20.456,4.338 21.569,4.338L23.585,4.338C24.698,4.338 25.6,5.241 25.6,6.354L25.6,22.477C25.6,23.59 24.698,24.492 23.585,24.492L21.569,24.492C20.456,24.492 19.554,23.59 19.554,22.477L19.554,6.354Z" fill="#FFFFFF"/>
<path d="M29.631,2.323C29.631,1.21 30.533,0.308 31.646,0.308L33.662,0.308C34.775,0.308 35.677,1.21 35.677,2.323L35.677,22.477C35.677,23.59 34.775,24.492 33.662,24.492L31.646,24.492C30.533,24.492 29.631,23.59 29.631,22.477L29.631,2.323Z" fill="#FFFFFF"/>
<path d="M9.477,13.408C9.477,12.295 10.379,11.392 11.492,11.392L13.508,11.392C14.621,11.392 15.523,12.295 15.523,13.408L15.523,22.477C15.523,23.59 14.621,24.492 13.508,24.492L11.492,24.492C10.379,24.492 9.477,23.59 9.477,22.477L9.477,13.408Z" fill="#FFFFFF"/>
<path d="M-0.6,18.446C-0.6,17.333 0.302,16.431 1.416,16.431L3.431,16.431C4.544,16.431 5.446,17.333 5.446,18.446L5.446,22.477C5.446,23.59 4.544,24.492 3.431,24.492L1.416,24.492C0.302,24.492 -0.6,23.59 -0.6,22.477L-0.6,18.446Z" fill="#FFFFFF"/>
</svg>
