<svg width="36" height="40" viewBox="0 0 36 40" fill="none" xmlns="http://www.w3.org/2000/svg" xmlns:xlink="http://www.w3.org/1999/xlink">
<path d="M22.43,13.835C23.029,13.263 23.051,12.314 22.48,11.715C21.908,11.115 20.958,11.093 20.359,11.665L22.43,13.835ZM16.167,29.706L15.131,28.621L15.131,28.621L16.167,29.706ZM31.325,15.242L32.361,16.327L32.361,16.327L31.325,15.242ZM19.827,4.27L20.862,5.355L20.862,5.355L19.827,4.27ZM4.668,18.734L3.633,17.649L3.633,17.649L4.668,18.734ZM21.394,34.694L20.359,33.609L20.359,33.609L21.394,34.694ZM31.629,27.001C32.229,26.429 32.251,25.48 31.679,24.881C31.107,24.281 30.158,24.259 29.558,24.831L31.629,27.001ZM20.359,11.665L8.86,22.637L10.931,24.807L22.43,13.835L20.359,11.665ZM8.86,22.637C6.51,24.88 6.51,28.548 8.86,30.791L10.931,28.621C9.819,27.56 9.819,25.868 10.931,24.807L8.86,22.637ZM8.86,30.791C11.171,32.996 14.892,32.996 17.202,30.791L15.131,28.621C13.98,29.72 12.083,29.72 10.931,28.621L8.86,30.791ZM17.202,30.791L32.361,16.327L30.29,14.157L15.131,28.621L17.202,30.791ZM32.361,16.327C36.155,12.706 36.155,6.806 32.361,3.185L30.29,5.355C32.846,7.794 32.846,11.718 30.29,14.157L32.361,16.327ZM32.361,3.185C28.606,-0.398 22.546,-0.398 18.791,3.185L20.862,5.355C23.458,2.878 27.694,2.878 30.29,5.355L32.361,3.185ZM18.791,3.185L3.633,17.649L5.704,19.819L20.862,5.355L18.791,3.185ZM3.633,17.649C-1.606,22.648 -1.606,30.78 3.633,35.779L5.704,33.609C1.704,29.792 1.704,23.636 5.704,19.819L3.633,17.649ZM3.633,35.779C8.832,40.74 17.231,40.74 22.43,35.779L20.359,33.609C16.319,37.464 9.744,37.464 5.704,33.609L3.633,35.779ZM22.43,35.779L31.629,27.001L29.558,24.831L20.359,33.609L22.43,35.779Z" fill="#000E08"/>
</svg>
