<svg width="24" height="28" viewBox="0 0 24 28" fill="none" xmlns="http://www.w3.org/2000/svg" xmlns:xlink="http://www.w3.org/1999/xlink">
<path d="M11.552,22.465L2.94,26.872C2.252,27.206 1.405,26.97 1.026,26.339L1.026,26.339C0.916,26.143 0.857,25.926 0.853,25.705L0.853,6.179C0.853,2.454 3.578,0.965 7.498,0.965L16.708,0.965C20.509,0.965 23.353,2.355 23.353,5.93L23.353,25.705C23.353,26.058 23.203,26.396 22.936,26.645C22.67,26.894 22.308,27.034 21.931,27.034C21.69,27.03 21.454,26.975 21.24,26.872L12.575,22.465C12.256,22.304 11.871,22.304 11.552,22.465Z" clip-rule="evenodd" fill-rule="evenodd" fill="#FFFFFF" stroke="#FFFFFF" stroke-width="1.034" stroke-miterlimit="3.999327" stroke-linecap="round" stroke-linejoin="round"/>
</svg>
