<svg width="48" height="48" viewBox="0 0 48 48" fill="none" xmlns="http://www.w3.org/2000/svg" xmlns:xlink="http://www.w3.org/1999/xlink">
<path d="M39.382,19.638C39.382,8.791 30.565,0 19.691,0C8.817,0 0,8.791 0,19.638C0,30.485 8.817,39.276 19.691,39.276C23.82,39.276 27.756,38.002 31.038,35.69L42.02,46.614C42.412,47.003 43.045,47.001 43.435,46.611L46.615,43.42C47.001,43.032 47.004,42.405 46.62,42.014L35.779,30.964C38.102,27.689 39.382,23.76 39.382,19.638ZM7.1,19.7C7.1,12.741 12.741,7.1 19.7,7.1C26.659,7.1 32.3,12.741 32.3,19.7C32.3,26.659 26.659,32.3 19.7,32.3C12.741,32.3 7.1,26.659 7.1,19.7Z" clip-rule="evenodd" fill-rule="evenodd" fill="#262626"/>
</svg>
