<svg width="30" height="8" viewBox="0 0 30 8" fill="none" xmlns="http://www.w3.org/2000/svg" xmlns:xlink="http://www.w3.org/1999/xlink">
<path d="M2.36,-0.944C4.096,-0.944 5.504,0.822 5.504,3C5.504,5.178 4.096,6.944 2.36,6.944C0.624,6.944 -0.784,5.178 -0.784,3C-0.784,0.822 0.624,-0.944 2.36,-0.944ZM13.888,-0.944C15.624,-0.944 17.032,0.822 17.032,3C17.032,5.178 15.624,6.944 13.888,6.944C12.152,6.944 10.744,5.178 10.744,3C10.744,0.822 12.152,-0.944 13.888,-0.944ZM25.416,-0.944C27.152,-0.944 28.56,0.822 28.56,3C28.56,5.178 27.152,6.944 25.416,6.944C23.68,6.944 22.272,5.178 22.272,3C22.272,0.822 23.68,-0.944 25.416,-0.944Z" clip-rule="evenodd" fill-rule="evenodd" fill="#262626"/>
</svg>
