<svg width="26" height="26" viewBox="0 0 26 26" fill="none" xmlns="http://www.w3.org/2000/svg" xmlns:xlink="http://www.w3.org/1999/xlink">
<path d="M26,13C26,12.103 25.272,11.375 24.375,11.375L6.256,11.375L14.178,3.453C14.826,2.806 14.816,1.753 14.158,1.117L14.158,1.117C13.515,0.497 12.494,0.506 11.862,1.138L0.129,12.871C0.058,12.942 0.058,13.058 0.129,13.129L11.86,24.86C12.49,25.49 13.51,25.49 14.14,24.86L14.14,24.86C14.768,24.232 14.77,23.216 14.145,22.585L6.256,14.625L24.375,14.625C25.272,14.625 26,13.897 26,13L26,13Z" transform="rotate(360 13 13)" fill="#FFFFFF"/>
</svg>
