<svg width="44" height="46" viewBox="0 0 44 46" fill="none" xmlns="http://www.w3.org/2000/svg" xmlns:xlink="http://www.w3.org/1999/xlink">
<path d="M43.4,19.412L23.4,-0.191C22.622,-0.953 21.378,-0.953 20.6,-0.191L0.6,19.412C0.216,19.788 0,20.303 0,20.84L0,45L0.016,45.18C0.101,45.646 0.509,46 1,46L17,45.999C17.552,45.999 18,45.552 18,44.999L18,34L18.01,33.648C18.193,30.498 18.805,28 22,28L22.353,28.01C25.269,28.179 25.912,30.431 25.991,33.3L26,34L26,44.999C26,45.552 26.448,45.999 27,45.999L43,46L43.18,45.984C43.646,45.899 44,45.491 44,45L44,20.84C44,20.303 43.784,19.788 43.4,19.412ZM3,21.26L22,2.638L41,21.26L41,43L29,43L29,34L28.991,33.261C28.857,28.401 27.085,25.279 22.526,25.015L22.087,25.001C17.103,25 15.324,28.149 15.015,33.474L15.001,33.913L15,43L3,43L3,21.26Z" clip-rule="evenodd" fill-rule="evenodd" fill="#262626"/>
</svg>
