<svg width="50" height="48" viewBox="0 0 50 48" fill="none" xmlns="http://www.w3.org/2000/svg" xmlns:xlink="http://www.w3.org/1999/xlink">
<path d="M40.996,20C40.996,9.23 31.846,0.5 20.56,0.5C9.273,0.5 0.124,9.23 0.124,20C0.124,30.77 9.273,39.5 20.56,39.5C25.638,39.5 30.283,37.733 33.857,34.808L46.411,46.789L46.588,46.934C47.203,47.37 48.076,47.321 48.634,46.789C49.248,46.203 49.248,45.253 48.634,44.667L36.079,32.688C39.144,29.278 40.996,24.845 40.996,20ZM3.268,20C3.268,10.887 11.01,3.5 20.56,3.5C30.11,3.5 37.852,10.887 37.852,20C37.852,29.113 30.11,36.5 20.56,36.5C11.01,36.5 3.268,29.113 3.268,20Z" clip-rule="evenodd" fill-rule="evenodd" fill="#262626"/>
</svg>
