<svg width="40" height="28" viewBox="0 0 40 28" fill="none" xmlns="http://www.w3.org/2000/svg" xmlns:xlink="http://www.w3.org/1999/xlink">
<path d="M25,0C26.657,0 28,1.343 28,3L28,25C28,26.657 26.657,28 25,28L3,28C1.343,28 0,26.657 0,25L0,3C0,1.343 1.343,0 3,0L25,0ZM39.772,4.376C39.922,4.662 40,4.98 40,5.303L40,22.215C40,23.319 39.105,24.215 38,24.215C37.678,24.215 37.36,24.137 37.074,23.988L32,21.338L32,6.183L37.073,3.53C38.052,3.019 39.26,3.397 39.772,4.376ZM14,4C8.477,4 4,8.477 4,14C4,19.523 8.477,24 14,24C19.523,24 24,19.523 24,14C24,8.477 19.523,4 14,4ZM14,8C17.314,8 20,10.686 20,14C20,17.314 17.314,20 14,20C10.686,20 8,17.314 8,14C8,10.686 10.686,8 14,8Z" clip-rule="evenodd" fill-rule="evenodd" fill="#FEFFFE" stroke="#000000" stroke-opacity="0.2" stroke-width="0.2" stroke-miterlimit="3.999327"/>
</svg>
