<svg width="32" height="28" viewBox="0 0 32 28" fill="none" xmlns="http://www.w3.org/2000/svg" xmlns:xlink="http://www.w3.org/1999/xlink">
<path d="M25.813,12C25.813,5.649 20.177,0.5 13.223,0.5C6.27,0.5 0.633,5.649 0.633,12C0.633,18.351 6.27,23.5 13.223,23.5C16.108,23.5 18.765,22.614 20.888,21.124L27.788,27.425L27.972,27.57C28.615,28.006 29.527,27.957 30.11,27.425C30.751,26.839 30.751,25.889 30.11,25.303L23.212,19.001C24.844,17.062 25.813,14.634 25.813,12ZM3.917,12C3.917,7.306 8.084,3.5 13.223,3.5C18.363,3.5 22.529,7.306 22.529,12C22.529,16.694 18.363,20.5 13.223,20.5C8.084,20.5 3.917,16.694 3.917,12Z" clip-rule="evenodd" fill-rule="evenodd" fill="#3C3C43" fill-opacity="0.6"/>
</svg>
