<svg width="48" height="46" viewBox="0 0 48 46" fill="none" xmlns="http://www.w3.org/2000/svg" xmlns:xlink="http://www.w3.org/1999/xlink">
<path d="M25.019,-0.191L45.979,19.412C46.381,19.788 46.608,20.303 46.608,20.84L46.608,44.999C46.608,45.552 46.139,45.999 45.56,45.999L30.888,45.999C30.309,45.999 29.84,45.552 29.84,44.999L29.84,34C29.84,30.805 27.222,28.193 23.921,28.01L23.552,28C20.203,28 17.466,30.498 17.275,33.648L17.264,34L17.264,44.999C17.264,45.552 16.795,45.999 16.216,45.999L1.544,46C1.03,46 0.602,45.646 0.513,45.18L0.496,45L0.496,45L0.496,20.84C0.496,20.303 0.723,19.788 1.125,19.412L22.085,-0.191C22.9,-0.953 24.204,-0.953 25.019,-0.191Z" clip-rule="evenodd" fill-rule="evenodd" fill="#262626"/>
</svg>
