<svg width="786" height="100" viewBox="0 0 786 100" fill="none" xmlns="http://www.w3.org/2000/svg" xmlns:xlink="http://www.w3.org/1999/xlink">
<path d="M705.4,68C718.712,68 729.504,57.703 729.504,45C729.504,32.297 718.712,22 705.4,22C692.088,22 681.296,32.297 681.296,45C681.296,57.703 692.088,68 705.4,68Z" clip-rule="evenodd" fill-rule="evenodd" fill="url(#pattern_0_96_776)" stroke="#000000" stroke-opacity="0.1" stroke-width="0.5" stroke-miterlimit="3.999327"/>
<path d="M248.996,40C248.996,29.23 239.846,20.5 228.56,20.5C217.273,20.5 208.124,29.23 208.124,40C208.124,50.77 217.273,59.5 228.56,59.5C233.638,59.5 238.283,57.733 241.857,54.808L254.411,66.789L254.588,66.934C255.203,67.37 256.076,67.321 256.634,66.789C257.248,66.203 257.248,65.253 256.634,64.667L244.079,52.688C247.144,49.278 248.996,44.845 248.996,40ZM211.268,40C211.268,30.887 219.01,23.5 228.56,23.5C238.11,23.5 245.852,30.887 245.852,40C245.852,49.113 238.11,56.5 228.56,56.5C219.01,56.5 211.268,49.113 211.268,40Z" clip-rule="evenodd" fill-rule="evenodd" fill="#262626"/>
<path d="M101.4,41.412L81.4,21.809C80.622,21.047 79.378,21.047 78.6,21.809L58.6,41.412C58.216,41.788 58,42.303 58,42.84L58,67L58.016,67.18C58.101,67.646 58.509,68 59,68L75,67.999C75.552,67.999 76,67.552 76,66.999L76,56L76.01,55.648C76.193,52.498 76.805,50 80,50L80.353,50.01C83.269,50.179 83.912,52.431 83.991,55.3L84,56L84,66.999C84,67.552 84.448,67.999 85,67.999L101,68L101.18,67.984C101.646,67.899 102,67.491 102,67L102,42.84C102,42.303 101.784,41.788 101.4,41.412ZM61,43.26L80,24.638L99,43.26L99,65L87,65L87,56L86.991,55.261C86.857,50.401 85.085,47.279 80.526,47.015L80.087,47.001C75.103,47 73.324,50.149 73.015,55.474L73.001,55.913L73,65L61,65L61,43.26Z" clip-rule="evenodd" fill-rule="evenodd" fill="#262626"/>
<line x1="0" y1="-1" x2="786" y2="-1" stroke="#8D8D8D" stroke-width="1" stroke-miterlimit="3.999327"/>
</svg>
