<svg width="788" height="100" viewBox="0 0 788 100" fill="none" xmlns="http://www.w3.org/2000/svg" xmlns:xlink="http://www.w3.org/1999/xlink">
<path d="M701.4,68C714.712,68 725.504,57.703 725.504,45C725.504,32.297 714.712,22 701.4,22C688.088,22 677.296,32.297 677.296,45C677.296,57.703 688.088,68 701.4,68Z" clip-rule="evenodd" fill-rule="evenodd" fill="url(#pattern_0_96_755)" stroke="#000000" stroke-opacity="0.1" stroke-width="0.5" stroke-miterlimit="3.999327"/>
<path d="M244.996,40C244.996,29.23 235.846,20.5 224.56,20.5C213.274,20.5 204.124,29.23 204.124,40C204.124,50.77 213.274,59.5 224.56,59.5C229.638,59.5 234.283,57.733 237.857,54.808L250.411,66.789L250.588,66.934C251.203,67.37 252.076,67.321 252.634,66.789C253.248,66.203 253.248,65.253 252.634,64.667L240.079,52.688C243.144,49.278 244.996,44.845 244.996,40ZM207.268,40C207.268,30.887 215.01,23.5 224.56,23.5C234.11,23.5 241.852,30.887 241.852,40C241.852,49.113 234.11,56.5 224.56,56.5C215.01,56.5 207.268,49.113 207.268,40Z" clip-rule="evenodd" fill-rule="evenodd" fill="#262626"/>
<path d="M97.4,41.412L77.4,21.809C76.622,21.047 75.378,21.047 74.6,21.809L54.6,41.412C54.216,41.788 54,42.303 54,42.84L54,67L54.016,67.18C54.101,67.646 54.509,68 55,68L71,67.999C71.552,67.999 72,67.552 72,66.999L72,56L72.01,55.648C72.193,52.498 72.805,50 76,50L76.353,50.01C79.269,50.179 79.912,52.431 79.991,55.3L80,56L80,66.999C80,67.552 80.448,67.999 81,67.999L97,68L97.18,67.984C97.646,67.899 98,67.491 98,67L98,42.84C98,42.303 97.784,41.788 97.4,41.412ZM57,43.26L76,24.638L95,43.26L95,65L83,65L83,56L82.991,55.261C82.857,50.401 81.085,47.279 76.526,47.015L76.087,47.001C71.103,47 69.324,50.149 69.015,55.474L69.001,55.913L69,65L57,65L57,43.26Z" clip-rule="evenodd" fill-rule="evenodd" fill="#262626"/>
<line x1="2" y1="-1" x2="788" y2="-1" stroke="#8D8D8D" stroke-width="1" stroke-miterlimit="3.999327"/>
</svg>
