<svg width="42" height="44" viewBox="0 0 42 44" fill="none" xmlns="http://www.w3.org/2000/svg" xmlns:xlink="http://www.w3.org/1999/xlink">
<path d="M10,18L11.5,18L11.5,18L10,18ZM18.384,10L18.384,8.5L18.384,8.5L18.384,10ZM30.96,10L30.96,11.5L30.96,11.5L30.96,10ZM39.344,18L37.844,18L37.844,18L39.344,18ZM39.344,26.686L40.844,26.686L40.844,26.686L39.344,26.686ZM23.295,42L23.295,40.5L23.295,40.5L23.295,42ZM18.384,42L18.384,43.5L18.384,43.5L18.384,42ZM36.888,32.343L35.853,31.258L35.853,31.258L36.888,32.343ZM29.224,39.657L28.188,38.572L28.188,38.572L29.224,39.657ZM1.616,26L0.116,26L1.616,26ZM1.616,10L0.116,10L1.616,10ZM22.576,2L22.576,0.5L22.576,2ZM26.768,38L25.268,38L25.268,38L26.768,38ZM35.152,30L35.152,31.5L35.152,31.5L35.152,30ZM11.5,34L11.5,18L8.5,18L8.5,34L11.5,34ZM18.384,11.5L30.96,11.5L30.96,8.5L18.384,8.5L18.384,11.5ZM37.844,18L37.844,26.686L40.844,26.686L40.844,18L37.844,18ZM23.295,40.5L18.384,40.5L18.384,43.5L23.295,43.5L23.295,40.5ZM35.853,31.258L28.188,38.572L30.259,40.742L37.924,33.428L35.853,31.258ZM23.295,43.5C25.895,43.5 28.401,42.515 30.259,40.742L28.188,38.572C26.902,39.799 25.143,40.5 23.295,40.5L23.295,43.5ZM37.844,26.686C37.844,28.387 37.137,30.033 35.853,31.258L37.924,33.428C39.785,31.653 40.844,29.229 40.844,26.686L37.844,26.686ZM11.5,18C11.5,14.476 14.515,11.5 18.384,11.5L18.384,8.5C12.992,8.5 8.5,12.688 8.5,18L11.5,18ZM8.5,34C8.5,39.312 12.992,43.5 18.384,43.5L18.384,40.5C14.515,40.5 11.5,37.524 11.5,34L8.5,34ZM30.96,11.5C34.829,11.5 37.844,14.476 37.844,18L40.844,18C40.844,12.688 36.352,8.5 30.96,8.5L30.96,11.5ZM3.116,26L3.116,10L0.116,10L0.116,26L3.116,26ZM10,3.5L22.576,3.5L22.576,0.5L10,0.5L10,3.5ZM3.116,10C3.116,6.476 6.131,3.5 10,3.5L10,0.5C4.608,0.5 0.116,4.688 0.116,10L3.116,10ZM0.116,26C0.116,31.312 4.608,35.5 10,35.5L10,32.5C6.131,32.5 3.116,29.524 3.116,26L0.116,26ZM22.576,3.5C26.445,3.5 29.46,6.476 29.46,10L32.46,10C32.46,4.688 27.968,0.5 22.576,0.5L22.576,3.5ZM28.268,42L28.268,38L25.268,38L25.268,42L28.268,42ZM35.152,31.5L39.344,31.5L39.344,28.5L35.152,28.5L35.152,31.5ZM28.268,38C28.268,34.476 31.283,31.5 35.152,31.5L35.152,28.5C29.76,28.5 25.268,32.688 25.268,38L28.268,38Z" fill="#797C7B"/>
</svg>
