<svg width="34" height="44" viewBox="0 0 34 44" fill="none" xmlns="http://www.w3.org/2000/svg" xmlns:xlink="http://www.w3.org/1999/xlink">
<path d="M32.716,20C32.716,19.172 32.044,18.5 31.216,18.5C30.388,18.5 29.716,19.172 29.716,20L32.716,20ZM3.372,20C3.372,19.172 2.701,18.5 1.872,18.5C1.044,18.5 0.372,19.172 0.372,20L3.372,20ZM22.832,43.5C23.66,43.5 24.332,42.828 24.332,42C24.332,41.172 23.66,40.5 22.832,40.5L22.832,43.5ZM10.256,40.5C9.428,40.5 8.756,41.172 8.756,42C8.756,42.828 9.428,43.5 10.256,43.5L10.256,40.5ZM23.428,10L23.428,22L26.428,22L26.428,10L23.428,10ZM9.66,22L9.66,10L6.66,10L6.66,22L9.66,22ZM16.544,28.5C12.675,28.5 9.66,25.524 9.66,22L6.66,22C6.66,27.312 11.152,31.5 16.544,31.5L16.544,28.5ZM23.428,22C23.428,25.524 20.413,28.5 16.544,28.5L16.544,31.5C21.936,31.5 26.428,27.312 26.428,22L23.428,22ZM16.544,3.5C20.413,3.5 23.428,6.476 23.428,10L26.428,10C26.428,4.688 21.936,0.5 16.544,0.5L16.544,3.5ZM16.544,0.5C11.152,0.5 6.66,4.688 6.66,10L9.66,10C9.66,6.476 12.675,3.5 16.544,3.5L16.544,0.5ZM29.716,20L29.716,22L32.716,22L32.716,20L29.716,20ZM3.372,22L3.372,20L0.372,20L0.372,22L3.372,22ZM16.544,34.5C9.202,34.5 3.372,28.838 3.372,22L0.372,22C0.372,30.626 7.68,37.5 16.544,37.5L16.544,34.5ZM29.716,22C29.716,28.838 23.886,34.5 16.544,34.5L16.544,37.5C25.408,37.5 32.716,30.626 32.716,22L29.716,22ZM15.044,36L15.044,42L18.044,42L18.044,36L15.044,36ZM16.544,43.5L22.832,43.5L22.832,40.5L16.544,40.5L16.544,43.5ZM16.544,40.5L10.256,40.5L10.256,43.5L16.544,43.5L16.544,40.5Z" fill="#000E08"/>
</svg>
