<svg width="324" height="90" viewBox="0 0 324 90" fill="none" xmlns="http://www.w3.org/2000/svg" xmlns:xlink="http://www.w3.org/1999/xlink">
<path d="M60.107,12.991C47.837,19.442 7.09,49.85 1.482,60.381C-4.635,79.562 9.639,89.764 17.795,90L62.656,90L154.927,90L300,90C301.576,90 307.668,88.59 312,86C315.914,83.661 318.064,80.249 320,78C324.01,73.34 324.002,66.243 324,65.056L324,65L324,4C323,3 324.276,2.921 316.528,0.157C308.778,-2.608 296.986,31.914 292.058,49.521C288.32,57.749 279.008,74.993 271.666,78.153C264.326,81.312 260.792,73.874 259.942,69.761C251.276,48.205 228.234,4.797 205.396,3.612C176.847,2.131 166.652,56.432 159.005,69.761C152.888,80.423 135.045,79.798 126.889,78.153C118.222,74.532 98.953,61.369 91.204,37.674C81.518,8.055 77.95,3.612 60.107,12.991Z" fill="#2E2E2E"/>
</svg>
