<svg width="32" height="24" viewBox="0 0 32 24" fill="none" xmlns="http://www.w3.org/2000/svg" xmlns:xlink="http://www.w3.org/1999/xlink">
<path d="M15.7,5.216C20.345,5.216 24.812,6.919 28.178,9.973C28.431,10.208 28.836,10.205 29.086,9.966L31.509,7.633C31.635,7.511 31.706,7.347 31.705,7.176C31.704,7.004 31.631,6.841 31.503,6.721C22.669,-1.358 8.731,-1.358 -0.104,6.721C-0.232,6.841 -0.305,7.004 -0.306,7.175C-0.307,7.347 -0.237,7.511 -0.11,7.633L2.313,9.966C2.563,10.206 2.968,10.209 3.221,9.973C6.588,6.919 11.055,5.216 15.7,5.216L15.7,5.216ZM15.7,12.807C18.252,12.807 20.713,13.712 22.605,15.347C22.86,15.579 23.263,15.574 23.513,15.335L25.933,13.002C26.06,12.88 26.131,12.714 26.129,12.541C26.127,12.369 26.053,12.204 25.923,12.084C20.163,6.971 11.243,6.971 5.482,12.084C5.352,12.204 5.278,12.369 5.276,12.541C5.275,12.714 5.346,12.88 5.473,13.002L7.893,15.335C8.142,15.574 8.545,15.579 8.801,15.347C10.691,13.713 13.15,12.808 15.7,12.807L15.7,12.807ZM20.351,18.376C20.481,18.255 20.552,18.088 20.548,17.915C20.545,17.742 20.466,17.578 20.332,17.462C17.658,15.304 13.742,15.304 11.069,17.462C10.934,17.578 10.856,17.742 10.852,17.915C10.848,18.088 10.919,18.255 11.049,18.376L15.236,22.407C15.358,22.526 15.526,22.593 15.7,22.593C15.875,22.593 16.042,22.526 16.165,22.407L20.351,18.376Z" clip-rule="evenodd" fill-rule="evenodd" fill="#060606"/>
</svg>
