<svg width="36" height="26" viewBox="0 0 36 26" fill="none" xmlns="http://www.w3.org/2000/svg" xmlns:xlink="http://www.w3.org/1999/xlink">
<path d="M16.932,5.523C21.903,5.523 26.684,7.472 30.287,10.969C30.558,11.239 30.992,11.235 31.259,10.961L33.852,8.289C33.987,8.15 34.063,7.962 34.062,7.766C34.061,7.57 33.983,7.383 33.846,7.245C24.39,-2.005 9.472,-2.005 0.016,7.245C-0.121,7.383 -0.199,7.57 -0.2,7.766C-0.201,7.962 -0.126,8.15 0.009,8.289L2.603,10.961C2.871,11.236 3.304,11.239 3.576,10.969C7.179,7.472 11.96,5.523 16.932,5.523ZM17.003,13.588C19.735,13.588 22.368,14.624 24.393,16.495C24.667,16.761 25.098,16.755 25.365,16.482L27.955,13.811C28.092,13.671 28.168,13.48 28.166,13.283C28.164,13.085 28.084,12.897 27.945,12.76C21.78,6.906 12.232,6.906 6.067,12.76C5.928,12.897 5.848,13.085 5.846,13.283C5.845,13.481 5.92,13.671 6.057,13.811L8.647,16.482C8.914,16.755 9.345,16.761 9.619,16.495C11.642,14.625 14.274,13.589 17.003,13.588ZM22.271,18.802C22.275,19 22.199,19.191 22.06,19.33L17.579,23.946C17.448,24.081 17.269,24.158 17.082,24.158C16.895,24.158 16.716,24.081 16.585,23.946L12.103,19.33C11.965,19.191 11.889,19 11.893,18.802C11.897,18.604 11.981,18.416 12.125,18.284C14.986,15.813 19.177,15.813 22.039,18.284C22.183,18.417 22.267,18.604 22.271,18.802Z" clip-rule="evenodd" fill-rule="evenodd" fill="#FFFFFF"/>
</svg>
